<svg width="48" height="48" viewBox="0 0 48 48" fill="none" xmlns="http://www.w3.org/2000/svg">
    <path d="M17.8565 36.795C17.8565 36.795 16.0689 37.8353 19.1304 38.1863C22.8399 38.61 24.7355 38.5493 28.8222 37.7768C28.8222 37.7768 29.8989 38.4499 31.3996 39.0334C22.235 42.9597 10.6591 38.8058 17.8565 36.795ZM16.736 31.6707C16.736 31.6707 14.7305 33.1553 17.7946 33.4725C21.7572 33.8817 24.8859 33.915 30.3024 32.8725C30.3024 32.8725 31.0497 33.6319 32.2269 34.0467C21.1486 37.2867 8.80961 34.3017 16.736 31.6707V31.6707Z" fill="#0074BD"/>
    <path d="M26.1759 22.9766C28.4353 25.5772 25.5834 27.9154 25.5834 27.9154C25.5834 27.9154 31.3168 24.9562 28.6843 21.249C26.2247 17.7934 24.3392 16.077 34.5474 10.1565C34.5474 10.1569 18.5233 14.1577 26.1759 22.9766V22.9766Z" fill="#EA2D2E"/>
    <path d="M38.2959 40.5859C38.2959 40.5859 39.6193 41.6771 36.8379 42.5205C31.5497 44.1225 14.8232 44.6055 10.1777 42.5846C8.50854 41.8579 11.6398 40.8502 12.6249 40.6376C13.652 40.4152 14.2385 40.4557 14.2385 40.4557C12.3812 39.1481 2.23366 43.0245 9.08491 44.1364C27.7678 47.1649 43.1413 42.7725 38.2959 40.5859V40.5859ZM18.7168 26.3602C18.7168 26.3602 10.2095 28.3811 15.7044 29.1157C18.0249 29.4262 22.6487 29.355 26.9585 28.9935C30.4798 28.6976 34.0134 28.0657 34.0134 28.0657C34.0134 28.0657 32.7729 28.5979 31.8744 29.2106C23.2337 31.4835 6.54541 30.4249 11.3503 28.1014C15.4123 26.1367 18.7168 26.3602 18.7168 26.3602V26.3602ZM33.9782 34.8904C42.761 30.3277 38.6998 25.9429 35.8652 26.5335C35.1722 26.6779 34.8613 26.8035 34.8613 26.8035C34.8613 26.8035 35.1193 26.3989 35.6113 26.2249C41.2187 24.2542 45.5304 32.0385 33.8027 35.1217C33.8027 35.121 33.9373 34.9991 33.9782 34.8904V34.8904Z" fill="#0074BD"/>
    <path d="M28.6841 0.595215C28.6841 0.595215 33.5471 5.46121 24.0704 12.9413C16.4707 18.9436 22.3376 22.3651 24.0678 26.276C19.6312 22.2736 16.3769 18.7497 18.5598 15.4703C21.7653 10.6576 30.6457 8.32321 28.6841 0.595215Z" fill="#EA2D2E"/>
    <path d="M19.5805 47.258C28.009 47.7969 40.9555 46.958 41.2619 42.9695C41.2619 42.9695 40.6728 44.4815 34.2955 45.6811C27.1008 47.0356 18.2253 46.8777 12.9629 46.0089C12.9629 46.0092 14.041 46.9017 19.5805 47.258V47.258Z" fill="#0074BD"/>
</svg>
