<svg width="42" height="48" viewBox="0 0 42 48" fill="none" xmlns="http://www.w3.org/2000/svg">
    <path d="M40.3031 10.6357L22.9761 0.471588C21.8845 -0.157196 20.4546 -0.157196 19.3544 0.471588L1.89194 10.6357C0.765806 11.2911 0 12.5229 0 13.8404V34.1417C0 35.4592 0.781899 36.6914 1.90843 37.3504L6.51229 40.0052C8.721 41.1056 9.33294 41.1056 10.3378 41.1056C13.6091 41.1056 15.3079 39.1053 15.3079 35.6164V15.5739C15.3083 15.2909 15.4829 14.8697 15.2078 14.8697H13.001C12.7216 14.8697 12.1681 15.2909 12.1681 15.5735V35.616C12.1681 37.1626 10.7488 38.7016 8.16363 37.3944L3.4055 34.6105C3.23986 34.5192 3.14016 34.3354 3.14016 34.1417V13.8404C3.14016 13.6491 3.32189 13.4569 3.48989 13.3589L20.9091 3.2122C20.9946 3.16625 21.09 3.14223 21.1868 3.14223C21.2837 3.14223 21.379 3.16625 21.4645 3.2122L38.7209 13.3565C38.8861 13.4569 38.8598 13.6431 38.8598 13.8404V34.1417C38.8598 34.3354 38.896 34.524 38.7331 34.6173L21.41 44.7699C21.2616 44.86 21.0685 44.86 20.9056 44.7699L16.4635 42.0908C16.3296 42.0122 16.1683 41.9841 16.0395 42.0567C14.8051 42.7645 14.5758 42.8586 13.4179 43.2647C13.1325 43.3651 12.7118 43.5394 13.578 44.0304L19.3865 47.5054C19.9411 47.8294 20.5702 48 21.2106 48C21.8535 48.001 22.4853 47.8304 23.0421 47.5054L40.3035 37.3504C41.4305 36.6866 42 35.4592 42 34.1417V13.8404C41.9996 12.5229 41.4301 11.2943 40.3031 10.6357V10.6357ZM26.5842 30.9248C21.9811 30.9248 20.9676 29.6406 20.6297 27.3259C20.5896 27.0766 20.3808 26.7785 20.1296 26.7785H17.8805C17.6022 26.7785 17.378 27.1199 17.378 27.4002C17.378 30.3639 18.9717 33.9548 26.5842 33.9548C32.0944 33.9548 35.2542 31.7893 35.2542 27.9571C35.2542 24.1574 32.7157 23.1602 27.3716 22.4449C21.9697 21.7228 21.421 21.358 21.421 20.0782C21.421 19.0231 21.8857 17.6159 25.8855 17.6159C29.459 17.6159 30.7763 18.3915 31.3184 20.8277C31.3651 21.0567 31.5719 21.2211 31.8055 21.2211H34.064C34.203 21.2211 34.3353 21.1643 34.4326 21.0639C34.5272 20.9559 34.5767 20.8205 34.5645 20.6753C34.214 16.4798 31.4585 14.5248 25.8851 14.5248C20.9268 14.5248 17.9696 16.6421 17.9696 20.1914C17.9696 24.0411 20.9123 25.1049 25.6716 25.5809C31.3651 26.1454 31.8078 26.9869 31.8078 28.1194C31.8078 30.0868 30.2464 30.9248 26.5842 30.9248Z" fill="#83CD29"/>
</svg>
