<svg width="48" height="24" viewBox="0 0 48 24" fill="none" xmlns="http://www.w3.org/2000/svg">
    <path d="M24 0C10.7457 0 0 5.37269 0 12C0 18.6273 10.7457 24 24 24C37.2543 24 48 18.6273 48 12C48 5.37269 37.2543 0 24 0ZM17.7551 14.3379C17.1823 14.8666 16.5463 15.0848 15.8459 15.3096C15.1454 15.5348 14.2541 15.4883 13.1703 15.4883H10.7139L10.0331 19.3641H7.16496L9.72429 6.18623H15.2397C16.8991 6.18623 18.1094 6.65715 18.8703 7.51642C19.6313 8.3757 19.8599 9.59543 19.5566 11.1353C19.4313 11.7698 19.2203 12.3597 18.9226 12.8852C18.614 13.4275 18.2199 13.9179 17.7551 14.3379V14.3379ZM26.1268 15.4883L27.2586 9.89929C27.3874 9.24505 27.3403 8.75902 27.1168 8.52143C26.8929 8.28345 26.4167 8.12416 25.6888 8.12416H23.4143L21.9486 15.4883H19.1029L21.6622 2.69797H24.5079L23.8275 6.18623H26.3625C27.9578 6.18623 29.0578 6.50211 29.6631 7.05093C30.2685 7.59975 30.45 8.35167 30.208 9.58109L29.0173 15.4883H26.1268ZM41.9421 11.1558C41.8171 11.7903 41.6058 12.3701 41.3084 12.8953C41.0106 13.4213 40.6217 13.9023 40.1413 14.3379C39.5685 14.8666 38.9321 15.0848 38.2321 15.3096C37.5321 15.5348 36.6399 15.4883 35.5561 15.4883H33.0997L32.4193 19.3641H29.5512L32.1101 6.18623H37.626C39.2853 6.18623 40.4956 6.65715 41.2562 7.51642C42.0163 8.3757 42.2453 9.61636 41.9421 11.1558V11.1558ZM36.539 8.12416H34.5744L33.5031 13.5503H35.2481C36.4038 13.5503 37.2657 13.4379 37.8314 13.0077C38.3979 12.5783 38.7793 11.9116 38.9777 10.9066C39.1678 9.94115 39.0814 9.18808 38.7184 8.79119C38.3551 8.3943 37.6287 8.12416 36.539 8.12416V8.12416ZM14.1531 8.12416H12.1882L11.1169 13.5503H12.8615C14.0176 13.5503 14.8791 13.4379 15.4452 13.0077C16.0113 12.5783 16.3931 11.9116 16.5911 10.9066C16.7812 9.94115 16.6948 9.18808 16.3318 8.79119C15.9688 8.3943 15.2429 8.12416 14.1531 8.12416Z" fill="#6181B6"/>
</svg>
