<svg width="1295" height="2554" viewBox="0 0 1295 2554" fill="none" xmlns="http://www.w3.org/2000/svg">
    <path d="M408.91 2184.73C631.988 1785.91 667.52 1742.52 857.18 1721.66C956.06 1707.02 1171.42 1642.91 1221.61 1442.7C1271.8 1242.49 1506.4 1037.28 1618.83 958.419" stroke="#6D6D6D"/>
    <path d="M443.89 2170.05C646.855 1755.12 682.912 1713.01 868.253 1674.38C965.095 1646.61 1180.41 1569.84 1220.68 1366.08C1260.96 1162.33 1482.18 942.774 1590.44 855.713" stroke="#6D6D6D"/>
    <path d="M478.557 2155.29C660.683 1725.73 697.505 1684.65 877.492 1628.78C971.379 1588.14 1186.17 1498.44 1216.39 1291.87C1246.6 1085.29 1453.92 852.592 1557.61 757.638" stroke="#6D6D6D"/>
    <path d="M512.906 2140.47C673.539 1697.83 711.344 1657.51 884.982 1585.03C975.015 1531.82 1188.78 1428.96 1208.83 1220.31C1228.88 1011.66 1421.85 767.025 1520.61 664.521" stroke="#6D6D6D"/>
    <path d="M546.946 2125.63C685.511 1671.49 724.491 1631.62 890.83 1543.23C976.134 1477.89 1188.35 1361.66 1198.16 1151.67C1207.97 941.686 1386.21 686.356 1479.68 576.668" stroke="#6D6D6D"/>
    <path d="M580.686 2110.78C696.686 1646.78 737.007 1607.03 895.144 1503.52C974.875 1426.53 1184.99 1296.75 1184.53 1086.19C1184.06 875.624 1347.26 610.846 1435.1 494.368" stroke="#6D6D6D"/>
    <path d="M614.123 2095.96C707.143 1623.75 748.942 1583.77 898.028 1466.02C971.374 1377.95 1178.82 1234.47 1168.08 1024.09C1157.34 813.702 1305.26 540.734 1387.16 417.884" stroke="#6D6D6D"/>
    <path d="M647.276 2081.18C716.982 1602.45 760.365 1561.89 899.61 1430.81C965.8 1332.34 1169.98 1175.05 1149.01 965.592C1128.04 756.137 1260.5 476.243 1336.16 347.461" stroke="#6D6D6D"/>
    <path d="M680.15 2066.47C726.292 1582.95 771.335 1541.4 900.008 1398C958.315 1289.85 1158.62 1118.68 1127.49 910.906C1096.36 703.132 1213.26 417.575 1282.42 283.323" stroke="#6D6D6D"/>
    <path d="M712.756 2051.84C735.169 1565.26 781.914 1522.33 899.35 1367.68C949.093 1250.64 1144.89 1065.57 1103.71 860.219C1062.53 654.871 1163.84 364.906 1226.24 225.665" stroke="#6D6D6D"/>
    <path d="M745.107 2037.32C743.711 1549.42 792.167 1504.7 897.768 1339.92C938.319 1214.86 1128.96 1015.89 1077.89 813.707C1026.81 611.521 1112.55 318.39 1167.97 174.66" stroke="#6D6D6D"/>
    <path d="M777.215 2022.92C752.014 1535.45 802.157 1488.53 895.395 1314.78C926.183 1182.63 1111.02 969.833 1050.22 771.533C989.432 573.233 1059.7 278.161 1107.94 130.458" stroke="#6D6D6D"/>
    <path d="M809.092 2008.67C760.178 1523.37 811.947 1473.83 892.368 1292.31C912.881 1154.06 1091.24 927.543 1020.95 733.841C950.655 540.138 1005.6 244.328 1046.5 93.1799" stroke="#6D6D6D"/>
    <path d="M840.752 1994.56C768.299 1513.18 821.601 1460.6 888.825 1272.57C898.615 1129.25 1069.81 889.17 990.276 700.759C910.74 512.347 950.584 216.973 983.984 62.9234" stroke="#6D6D6D"/>
    <path d="M872.207 1980.62C776.476 1504.88 831.181 1448.85 884.904 1255.59C883.588 1108.28 1046.94 854.842 958.446 672.397C869.95 489.953 894.968 196.158 920.751 39.7585" stroke="#6D6D6D"/>
    <path d="M903.476 1966.86C784.809 1498.47 840.754 1438.59 880.752 1241.38C868.014 1091.2 1022.84 824.676 925.7 648.852C828.561 473.027 839.083 181.918 857.157 23.7303" stroke="#6D6D6D"/>
    <path d="M934.568 1953.28C793.392 1493.92 850.379 1429.79 876.505 1229.96C852.103 1078.07 997.711 798.771 892.276 630.197C786.842 461.623 783.253 174.266 793.554 14.8566" stroke="#6D6D6D"/>
    <path d="M965.498 1939.9C802.318 1491.21 860.116 1422.46 872.303 1221.32C836.065 1068.9 971.77 777.208 858.418 616.489C745.067 455.769 727.803 173.185 730.294 13.1262" stroke="#6D6D6D"/>
    <path d="M996.285 1926.72C811.687 1490.32 870.033 1416.58 868.294 1215.47C820.123 1063.72 945.244 760.058 824.382 607.769C703.52 455.48 673.063 178.642 667.734 18.5075" stroke="#6D6D6D"/>
    <path d="M1026.93 1913.75C821.578 1491.19 880.177 1412.14 864.603 1212.37C804.479 1062.5 918.343 747.368 790.404 604.054C662.465 460.741 619.342 190.572 606.213 30.9363" stroke="#6D6D6D"/>
    <path d="M1057.47 1900.99C832.09 1493.79 890.618 1409.11 861.38 1212C789.357 1065.23 891.305 739.174 756.748 605.35C622.19 471.526 566.968 208.893 546.086 50.328" stroke="#6D6D6D"/>
    <path d="M1087.89 1888.44C843.3 1498.06 901.403 1407.48 858.75 1214.31C774.959 1071.87 864.346 735.492 723.653 611.637C582.959 487.782 516.242 233.495 487.683 76.5696" stroke="#6D6D6D"/>
    <path d="M1118.22 1876.11C855.297 1503.95 912.596 1407.21 856.851 1219.25C761.499 1082.36 837.7 736.321 691.374 622.879C545.048 509.437 467.476 264.246 431.34 109.523" stroke="#6D6D6D"/>
    <path d="M1148.47 1864C868.156 1511.39 924.246 1408.28 855.809 1226.77C749.181 1096.62 811.588 741.646 660.155 639.023C508.723 536.4 420.962 300.994 377.38 149.028" stroke="#6D6D6D"/>
    <path d="M1178.66 1852.1C881.951 1520.31 936.406 1410.66 855.747 1236.79C738.202 1114.57 786.237 751.432 630.239 659.996C474.242 568.56 376.988 343.563 326.117 194.9" stroke="#6D6D6D"/>
    <path d="M1208.78 1840.42C896.752 1530.63 949.125 1414.31 856.786 1249.23C728.757 1136.09 761.867 765.627 601.865 685.706C441.862 605.784 335.831 391.757 277.852 246.929" stroke="#6D6D6D"/>
    <path d="M1238.86 1828.95C912.622 1542.28 962.45 1419.18 859.037 1264.01C721.031 1161.06 738.697 784.165 575.263 716.044C411.829 647.923 297.755 445.359 232.877 304.886" stroke="#6D6D6D"/>
    <path d="M1268.9 1817.69C929.631 1555.17 976.433 1425.25 862.619 1281.02C715.212 1189.36 716.949 806.962 550.669 750.886C384.389 694.809 263.022 504.136 191.477 368.521" stroke="#6D6D6D"/>
    <path d="M1298.92 1806.65C947.831 1569.22 991.116 1432.47 867.633 1300.17C711.469 1220.82 696.831 833.918 528.301 790.087C359.771 746.256 231.871 567.832 153.916 437.562" stroke="#6D6D6D"/>
    <path d="M1328.93 1795.81C967.273 1584.31 1006.54 1440.8 874.176 1321.34C709.966 1255.29 678.547 864.916 508.371 833.487C338.195 802.058 204.528 636.176 120.443 511.718" stroke="#6D6D6D"/>
    <path d="M1358.92 1785.18C988.004 1600.37 1022.75 1450.19 882.343 1344.41C710.859 1292.58 662.299 899.827 491.087 880.913C319.875 861.999 181.211 708.882 91.2966 590.683" stroke="#6D6D6D"/>
    <path d="M1388.92 1774.74C1010.07 1617.29 1039.78 1460.58 892.223 1369.26C714.295 1332.5 648.282 938.502 476.648 932.17C305.013 925.838 162.12 785.644 66.6991 674.127" stroke="#6D6D6D"/>
    <path d="M1418.93 1764.49C1033.5 1634.97 1057.67 1471.93 903.895 1395.77C720.411 1374.86 636.681 980.78 465.24 987.053C293.798 993.326 147.44 866.148 46.8541 761.713" stroke="#6D6D6D"/>
    <path d="M1448.97 1754.44C1058.34 1653.31 1076.45 1484.19 917.433 1423.78C729.329 1419.44 627.674 1026.49 457.04 1045.34C286.406 1064.2 137.337 950.062 31.9475 853.083" stroke="#6D6D6D"/>
    <path d="M1479.02 1744.57C1084.6 1672.18 1096.17 1497.3 932.903 1453.16C741.165 1466.01 621.43 1075.44 452.215 1106.8C283 1138.17 131.963 1037.04 22.1486 947.869" stroke="#6D6D6D"/>
    <path d="M1509.11 1734.88C1112.31 1691.5 1116.84 1511.21 950.364 1483.76C756.017 1514.36 618.108 1127.42 450.918 1171.19C283.728 1214.96 131.453 1126.74 17.6062 1045.69" stroke="#6D6D6D"/>
    <path d="M1539.24 1725.36C1141.48 1711.14 1138.49 1525.86 969.87 1515.44C773.979 1564.23 617.86 1182.23 453.295 1238.25C288.729 1294.26 135.924 1218.79 18.4538 1146.15" stroke="#6D6D6D"/>
    <path d="M1569.42 1716.01C1172.13 1731 1161.16 1541.19 991.465 1548.04C795.124 1615.39 620.823 1239.64 459.472 1307.7C298.121 1375.76 145.473 1312.82 24.8009 1248.86" stroke="#6D6D6D"/>
    <path d="M1599.65 1706.81C1204.25 1750.97 1184.87 1557.14 1015.18 1581.4C819.515 1667.58 627.123 1299.42 469.564 1379.28C312.006 1459.13 160.179 1408.46 36.737 1353.4" stroke="#6D6D6D"/>
    <path d="M1629.94 1697.77C1237.85 1770.93 1209.64 1573.64 1041.06 1615.36C847.206 1720.53 636.881 1361.31 483.679 1452.68C330.478 1544.05 180.107 1505.32 54.3385 1459.37" stroke="#6D6D6D"/>
    <path d="M1660.3 1688.88C1272.91 1790.78 1235.49 1590.65 1069.11 1649.76C878.231 1774 650.197 1425.07 501.901 1527.62C353.606 1630.18 205.298 1603.02 77.6529 1566.33" stroke="#6D6D6D"/>
    <path d="M1690.72 1680.13C1309.44 1810.4 1262.44 1608.08 1099.34 1684.45C912.612 1827.72 667.161 1490.43 524.304 1603.8C381.446 1717.18 235.772 1701.16 106.709 1673.88" stroke="#6D6D6D"/>
    <path d="M1721.21 1671.51C1347.4 1829.69 1290.5 1625.89 1131.77 1719.25C950.359 1881.41 687.853 1557.11 550.945 1680.9C414.037 1804.69 271.536 1799.37 141.518 1781.58" stroke="#6D6D6D"/>
    <path d="M1751.78 1663.01C1386.78 1848.53 1319.69 1643.99 1166.39 1754.01C991.467 1934.82 712.339 1624.86 581.87 1758.61C451.402 1892.36 312.576 1897.24 182.069 1889.01" stroke="#6D6D6D"/>
    <path d="M1782.43 1654.64C1427.55 1866.83 1350.01 1662.34 1203.19 1788.56C1035.92 1987.67 740.666 1693.37 617.105 1836.61C493.545 1979.86 358.856 1994.39 228.328 1995.75" stroke="#6D6D6D"/>
    <path d="M1812.7 1644.25C1469.21 1882.36 1381.02 1678.72 1241.69 1820.61C1083.21 2037.57 772.409 1760.25 656.198 1912.47C539.988 2064.68 409.86 2088.31 279.779 2099.25" stroke="#6D6D6D"/>
    <path d="M1842.77 1633.73C1511.9 1896.9 1412.89 1694.98 1282.03 1851.91C1133.48 2086.15 807.767 1827.1 699.323 1987.74C590.879 2148.38 465.694 2180.51 336.527 2200.99" stroke="#6D6D6D"/>
    <path d="M1872.71 1623.43C1555.64 1910.71 1445.68 1711.38 1324.25 1882.63C1186.72 2133.5 846.807 1893.96 746.519 2062.45C646.231 2230.95 526.327 2270.95 398.537 2300.91" stroke="#6D6D6D"/>
    <path d="M1902.52 1613.35C1600.4 1923.72 1479.42 1727.89 1368.31 1912.65C1242.87 2179.38 889.537 1960.57 797.764 2136.32C705.99 2312.06 591.665 2359.3 465.709 2398.63" stroke="#6D6D6D"/>
    <path d="M1932.22 1603.51C1646.13 1935.85 1514.11 1744.45 1414.17 1941.84C1301.86 2223.56 935.948 2026.66 853.018 2209.03C770.088 2391.39 661.593 2445.22 537.925 2493.77" stroke="#6D6D6D"/>
</svg>
